<svg width="26" height="25" viewBox="0 0 26 25" fill="none" xmlns="http://www.w3.org/2000/svg">
<path d="M16.8686 10.6049L14.9698 9.16264L14.7379 8.98742V6.9629C14.7379 6.67715 14.5033 6.44531 14.2141 6.44531C13.9249 6.44531 13.6903 6.67715 13.6903 6.9629V8.18677L11.5132 6.53158C11.3577 6.41296 11.1449 6.41296 10.9894 6.53158L7.48365 9.20038L6.62701 9.85006L5.63395 10.6049C5.44571 10.7477 5.41025 11.0146 5.55484 11.1979C5.69943 11.3839 5.96952 11.419 6.15503 11.2761L6.62428 10.9176V15.4195C6.62428 15.654 6.81525 15.8427 7.0526 15.8427H15.3899C15.6273 15.8427 15.8182 15.654 15.8182 15.4195V10.8771L16.342 11.2761C16.4212 11.3354 16.5112 11.3651 16.6039 11.3651C16.7322 11.3651 16.8604 11.3085 16.945 11.2006C17.0896 11.0146 17.0541 10.7504 16.8686 10.6076V10.6049Z" fill="black"/>
<path d="M23.6453 20.9782L18.8956 16.2822C19.9077 14.8157 20.5025 13.0445 20.5025 11.1413C20.5025 6.10026 16.3529 2 11.2512 2C6.14956 2 2 6.10026 2 11.1413C2 16.1824 6.14956 20.2827 11.2512 20.2827C13.5593 20.2827 15.6736 19.4416 17.2969 18.0533L21.9511 22.6522C22.1858 22.8841 22.4913 23 22.7996 23C23.1079 23 23.4134 22.8841 23.6481 22.6522C24.1173 22.1886 24.1173 21.4392 23.6481 20.9755L23.6453 20.9782ZM16.473 17.1933C15.0652 18.3822 13.2428 19.0992 11.2512 19.0992C6.8125 19.0992 3.2004 15.53 3.2004 11.144C3.2004 6.75802 6.8125 3.18614 11.2512 3.18614C15.69 3.18614 19.3048 6.75533 19.3048 11.144C19.3048 12.7507 18.8192 14.2469 17.9871 15.4977C17.567 16.1312 17.0568 16.7027 16.4757 17.1933H16.473Z" fill="black"/>
</svg>
